<svg xmlns="http://www.w3.org/2000/svg" xmlns:xlink="http://www.w3.org/1999/xlink" width="80" height="80" viewBox="0 0 80 80">
  <defs>
    <linearGradient id="linear-gradient" x1="0.5" x2="0.5" y2="1" gradientUnits="objectBoundingBox">
      <stop offset="0" stop-color="#fda2e7"/>
      <stop offset="1" stop-color="#e957fc"/>
    </linearGradient>
  </defs>
  <g id="Icon" transform="translate(-1205 -3957)">
    <rect id="Rectangle_16" data-name="Rectangle 16" width="80" height="80" rx="20" transform="translate(1205 3957)" fill="#f27cf1" opacity="0.3"/>
    <rect id="Rectangle_20" data-name="Rectangle 20" width="60" height="60" rx="20" transform="translate(1215 3967)" fill="url(#linear-gradient)"/>
    <path id="Path_1102" data-name="Path 1102" d="M26.963,2.667H4.875A2.211,2.211,0,0,0,2.667,4.875V23.429a2.211,2.211,0,0,0,2.209,2.209h7.949a4.054,4.054,0,0,1-1.193,2.78.442.442,0,0,0,.312.754h7.951a.442.442,0,0,0,.312-.754,4.054,4.054,0,0,1-1.193-2.78h7.949a2.211,2.211,0,0,0,2.209-2.209V4.875a2.211,2.211,0,0,0-2.209-2.209ZM3.55,4.875A1.327,1.327,0,0,1,4.875,3.55H26.963a1.327,1.327,0,0,1,1.325,1.325V22.1H3.55ZM18.962,28.288H12.876a4.928,4.928,0,0,0,.832-2.65H18.13A4.928,4.928,0,0,0,18.962,28.288Zm8-3.534H4.875A1.327,1.327,0,0,1,3.55,23.429v-.442H28.288v.442A1.327,1.327,0,0,1,26.963,24.754Z" transform="translate(1229.333 3981.333)" fill="#fff"/>
    <path id="Path_1103" data-name="Path 1103" d="M30.529,8H8.442A.442.442,0,0,0,8,8.442v15.9a.442.442,0,0,0,.442.442H30.529a.442.442,0,0,0,.442-.442V8.442A.442.442,0,0,0,30.529,8Zm-.442,15.9H8.883V8.883h21.2Z" transform="translate(1225.767 3977.767)" fill="#fff"/>
    <path id="Path_1104" data-name="Path 1104" d="M18.6,28.369H32.851a.442.442,0,0,0,.4-.245,8.309,8.309,0,0,0,.873-3.731,8.393,8.393,0,1,0-16.786,0,8.309,8.309,0,0,0,.873,3.731.442.442,0,0,0,.4.245Zm7.124-11.485a7.518,7.518,0,0,1,7.51,7.51,7.431,7.431,0,0,1-.665,3.092H18.881a7.431,7.431,0,0,1-.665-3.092A7.518,7.518,0,0,1,25.726,16.883Z" transform="translate(1219.526 3972.417)" fill="#fff"/>
    <path id="Path_1105" data-name="Path 1105" d="M23.364,30.176H35.22a.442.442,0,0,0,.423-.316,6.626,6.626,0,1,0-12.7,0A.442.442,0,0,0,23.364,30.176Zm2.684-6.944.432.748.765-.442-.433-.75a5.694,5.694,0,0,1,1.051-.384l.151.854.87-.153-.15-.853c.184-.018.371-.027.559-.027s.375.009.559.027l-.151.853.87.153.151-.854a5.694,5.694,0,0,1,1.051.384l-.433.75.765.442.432-.748a5.788,5.788,0,0,1,.856.719l-.661.555.568.677.662-.555a5.743,5.743,0,0,1,.561.967l-.814.3.3.83.815-.3a5.71,5.71,0,0,1,.194,1.1h-.867v.883h.866a5.736,5.736,0,0,1-.137.883H23.7a5.743,5.743,0,0,1-.137-.883h.866v-.883h-.867a5.709,5.709,0,0,1,.194-1.1l.815.3.3-.83-.814-.3a5.743,5.743,0,0,1,.561-.967l.662.555.568-.677-.661-.555a5.788,5.788,0,0,1,.856-.719Z" transform="translate(1215.96 3968.843)" fill="#fff"/>
    <path id="Path_1106" data-name="Path 1106" d="M41.321,37.824c0-.008,0-.017,0-.025l2.364-.887-.31-.827-2.365.887a1.324,1.324,0,1,0,.311.852ZM40,38.266a.442.442,0,1,1,.442-.442A.442.442,0,0,1,40,38.266Z" transform="translate(1205.257 3958.987)" fill="#fff"/>
    <circle id="Ellipse_44" data-name="Ellipse 44" cx="0.442" cy="0.442" r="0.442" transform="translate(1235.534 3987.534)" fill="#fff"/>
    <circle id="Ellipse_45" data-name="Ellipse 45" cx="0.442" cy="0.442" r="0.442" transform="translate(1236.859 3987.534)" fill="#fff"/>
    <circle id="Ellipse_46" data-name="Ellipse 46" cx="0.442" cy="0.442" r="0.442" transform="translate(1238.184 3987.534)" fill="#fff"/>
    <circle id="Ellipse_47" data-name="Ellipse 47" cx="0.442" cy="0.442" r="0.442" transform="translate(1244.81 4004.762)" fill="#fff"/>
    <path id="Path_1107" data-name="Path 1107" d="M64,13.333h2.65v.883H64Z" transform="translate(1188.32 3974.2)" fill="#fff"/>
    <path id="Path_1108" data-name="Path 1108" d="M58.667,13.333h.883v.883h-.883Z" transform="translate(1191.886 3974.2)" fill="#fff"/>
  </g>
</svg>
