<svg xmlns="http://www.w3.org/2000/svg" xmlns:xlink="http://www.w3.org/1999/xlink" width="80" height="80" viewBox="0 0 80 80">
  <defs>
    <linearGradient id="linear-gradient" x1="0.5" x2="0.5" y2="1" gradientUnits="objectBoundingBox">
      <stop offset="0" stop-color="#a9e595"/>
      <stop offset="1" stop-color="#0bcd87"/>
    </linearGradient>
  </defs>
  <g id="Icon" transform="translate(-805 -3958)">
    <rect id="Rectangle_16" data-name="Rectangle 16" width="80" height="80" rx="20" transform="translate(805 3958)" fill="#56d88d" opacity="0.3"/>
    <rect id="Rectangle_18" data-name="Rectangle 18" width="60" height="60" rx="15" transform="translate(815 3968)" fill="url(#linear-gradient)"/>
    <path id="XMLID_361_" d="M102.688,44a.682.682,0,1,0,.482.2A.687.687,0,0,0,102.688,44Z" transform="translate(732.951 3943.005)" fill="#fff"/>
    <path id="XMLID_362_" d="M54.688,44a.682.682,0,1,0,.482.2A.687.687,0,0,0,54.688,44Z" transform="translate(777.677 3943.005)" fill="#fff"/>
    <path id="XMLID_363_" d="M150.688,44a.682.682,0,1,0,.482.2A.687.687,0,0,0,150.688,44Z" transform="translate(688.226 3943.005)" fill="#fff"/>
    <path id="XMLID_366_" d="M32.065,0H2.871A2.868,2.868,0,0,0,.006,2.865v20.46A2.868,2.868,0,0,0,2.871,26.19h7.862A9.655,9.655,0,0,0,16.786,28.9c.512,0-.379.013,1.364,0A9.655,9.655,0,0,0,24.2,26.19h7.862a2.868,2.868,0,0,0,2.865-2.865V2.865A2.868,2.868,0,0,0,32.065,0ZM19.616,27.276A13.273,13.273,0,0,0,20.9,22.92h4.033a8.358,8.358,0,0,1-5.313,4.357Zm-3.623-1.889a15.272,15.272,0,0,1-.575-2.468h4.1a15.265,15.265,0,0,1-.575,2.468c-.5,1.5-1.1,2.171-1.475,2.171s-.975-.671-1.475-2.171ZM9.146,19.236a8.3,8.3,0,0,1,.329-2.319h4.408c-.066.761-.1,1.541-.1,2.319s.033,1.558.1,2.319H9.476a8.3,8.3,0,0,1-.329-2.319Zm6,0c0-.8.036-1.574.1-2.319h4.432c.068.745.1,1.523.1,2.319s-.036,1.574-.1,2.319H15.252C15.185,20.81,15.149,20.032,15.149,19.236Zm10.641,0a8.3,8.3,0,0,1-.329,2.319H21.052c.066-.761.1-1.541.1-2.319s-.033-1.558-.1-2.319h4.408A8.3,8.3,0,0,1,25.79,19.236ZM20.9,15.553a13.273,13.273,0,0,0-1.28-4.357,8.358,8.358,0,0,1,5.313,4.357Zm-1.953-2.468a15.272,15.272,0,0,1,.575,2.468h-4.1a15.265,15.265,0,0,1,.575-2.468c.5-1.5,1.1-2.171,1.475-2.171s.975.671,1.475,2.171Zm-4.9,2.468H10.008A8.358,8.358,0,0,1,15.32,11.2,13.273,13.273,0,0,0,14.04,15.553Zm0,7.367a13.274,13.274,0,0,0,1.28,4.357,8.358,8.358,0,0,1-5.313-4.357Zm18.025,1.906H25.374a9.686,9.686,0,1,0-15.813,0H2.871a1.5,1.5,0,0,1-1.5-1.5V7.367H14.4A.682.682,0,1,0,14.4,6H1.37V2.865a1.5,1.5,0,0,1,1.5-1.5H32.065a1.5,1.5,0,0,1,1.5,1.5V6H20.538a.682.682,0,1,0,0,1.364H33.566V23.325A1.5,1.5,0,0,1,32.065,24.825Z" transform="translate(827.994 3984)" fill="#fff"/>
    <path id="XMLID_405_" d="M246.688,88.066a.682.682,0,1,0,.482.2A.684.684,0,0,0,246.688,88.066Z" transform="translate(598.774 3901.941)" fill="#fff"/>
  </g>
</svg>
