<svg xmlns="http://www.w3.org/2000/svg" xmlns:xlink="http://www.w3.org/1999/xlink" width="80" height="80" viewBox="0 0 80 80">
  <defs>
    <linearGradient id="linear-gradient" x1="0.5" x2="0.5" y2="1" gradientUnits="objectBoundingBox">
      <stop offset="0" stop-color="#feaad6"/>
      <stop offset="1" stop-color="#fd84bd"/>
    </linearGradient>
  </defs>
  <g id="Icon" transform="translate(-1205 -4369)">
    <rect id="Rectangle_16" data-name="Rectangle 16" width="80" height="80" rx="20" transform="translate(1205 4369)" fill="#fd97c9" opacity="0.3"/>
    <rect id="Rectangle_23" data-name="Rectangle 23" width="60" height="60" rx="15" transform="translate(1215 4379)" fill="url(#linear-gradient)"/>
    <path id="Path_1862" data-name="Path 1862" d="M32.3,163.8H30.217V146.311a2.022,2.022,0,0,0-2.02-2.02H22.038a.48.48,0,1,0,0,.96H28.2a1.061,1.061,0,0,1,1.06,1.06V163.8H27.613a4.036,4.036,0,0,0,.038-.546,4.078,4.078,0,0,0-4.073-4.073,4.017,4.017,0,0,0-.9.1,3.037,3.037,0,0,0-2.692-1.643,2.965,2.965,0,0,0-1.075.2,2.533,2.533,0,0,0-5.036,0,2.965,2.965,0,0,0-1.075-.2,3.037,3.037,0,0,0-2.692,1.643,4.013,4.013,0,0,0-.9-.1,4.078,4.078,0,0,0-4.073,4.073,4.035,4.035,0,0,0,.038.546H3.527V146.311a1.061,1.061,0,0,1,1.06-1.06h6.159a.48.48,0,1,0,0-.96H4.586a2.022,2.022,0,0,0-2.02,2.02V163.8H.48a.48.48,0,0,0-.48.48V165.3a1.508,1.508,0,0,0,1.507,1.507h29.77a1.508,1.508,0,0,0,1.507-1.507v-1.027A.48.48,0,0,0,32.3,163.8Zm-.48,1.507a.547.547,0,0,1-.546.546H1.507A.547.547,0,0,1,.96,165.3v-.546H7.153a.48.48,0,0,0,0-.96H6.142a3.083,3.083,0,0,1-.049-.546,3.105,3.105,0,0,1,4.13-2.939.48.48,0,0,0,.612-.3A2.081,2.081,0,0,1,12.8,158.6a2.054,2.054,0,0,1,1.333.5.48.48,0,0,0,.767-.511,1.543,1.543,0,0,1-.081-.466,1.573,1.573,0,0,1,3.146,0,1.543,1.543,0,0,1-.081.466.48.48,0,0,0,.767.511,2.054,2.054,0,0,1,1.333-.5,2.081,2.081,0,0,1,1.964,1.415.48.48,0,0,0,.612.3,3.108,3.108,0,0,1,4.081,3.485H9.206a.48.48,0,0,0,0,.96H31.823Z" transform="translate(1229 4257.921)" fill="#fff"/>
    <path id="Path_1863" data-name="Path 1863" d="M152.775,30.149a2.024,2.024,0,0,0-.468,1.293v1.5a.48.48,0,0,0,.716.418l3.42-1.93q.2.357.414.7l-.43,1.72a.48.48,0,0,0,.466.6H161a.48.48,0,0,0,.466-.6l-.43-1.72q.219-.345.414-.7l3.42,1.93a.48.48,0,0,0,.716-.418v-1.5a2.024,2.024,0,0,0-.468-1.293l-2.28-2.735a13.105,13.105,0,0,0,.182-2.175,12.888,12.888,0,0,0-1.008-5.031,12.37,12.37,0,0,0-2.729-4.037.48.48,0,0,0-.674,0,12.369,12.369,0,0,0-2.729,4.037,12.888,12.888,0,0,0-1.008,5.031,13.108,13.108,0,0,0,.181,2.172Zm.492,1.966v-.673a1.062,1.062,0,0,1,.246-.678l1.8-2.16a12.732,12.732,0,0,0,.7,1.962Zm4.241,1.369.273-1.093h2.33l.273,1.093Zm6.871-2.72a1.062,1.062,0,0,1,.246.678v.673l-2.746-1.549a12.737,12.737,0,0,0,.7-1.962ZM158.946,17.2a11.468,11.468,0,0,1,1.977,2.937h-3.954A11.468,11.468,0,0,1,158.946,17.2Zm-2.377,3.9h4.755a12.035,12.035,0,0,1,.735,4.139,11.874,11.874,0,0,1-1.721,6.192h-2.784a11.874,11.874,0,0,1-1.721-6.192,12.036,12.036,0,0,1,.735-4.139Z" transform="translate(1086.445 4377.967)" fill="#fff"/>
    <path id="Path_1864" data-name="Path 1864" d="M228.492,122.262a2.02,2.02,0,1,0-2.02,2.02A2.022,2.022,0,0,0,228.492,122.262Zm-3.08,0a1.06,1.06,0,1,1,1.06,1.06A1.061,1.061,0,0,1,225.412,122.262Z" transform="translate(1018.92 4280.43)" fill="#fff"/>
  </g>
</svg>
