<svg xmlns="http://www.w3.org/2000/svg" xmlns:xlink="http://www.w3.org/1999/xlink" width="80" height="80" viewBox="0 0 80 80">
  <defs>
    <linearGradient id="linear-gradient" x1="0.5" x2="0.5" y2="1" gradientUnits="objectBoundingBox">
      <stop offset="0" stop-color="#c8bdfe"/>
      <stop offset="1" stop-color="#968dfd"/>
    </linearGradient>
  </defs>
  <g id="Icon" transform="translate(-805 -4369)">
    <rect id="Rectangle_16" data-name="Rectangle 16" width="80" height="80" rx="20" transform="translate(805 4369)" fill="#afa5fd" opacity="0.3"/>
    <rect id="Rectangle_22" data-name="Rectangle 22" width="60" height="60" rx="15" transform="translate(815 4379)" fill="url(#linear-gradient)"/>
    <path id="Path_1849" data-name="Path 1849" d="M29.757,8H1.463A1.463,1.463,0,0,0,0,9.463V30.928a.488.488,0,0,0,.488.488H11.6l-.781,3.9H9.756a.488.488,0,0,0-.488.488v1.463H8.293v.976H22.928v-.976h-.976V35.806a.488.488,0,0,0-.488-.488H20.4l-.781-3.9H30.733a.488.488,0,0,0,.488-.488V9.463A1.463,1.463,0,0,0,29.757,8ZM20,36.294h.976v.976H10.244v-.976H20Zm-8.186-.976.78-3.9h6.03l.781,3.9Zm18.43-4.878H.976V26.05H30.245Zm-6.83-18.05h-3.9a.488.488,0,0,0-.488.488v4.39H20v-3.9h2.927v1.951H20.976v.976h1.951v2.439H20.976v.976h1.951v2.439H20.976v.976h1.951v1.951H20v-3.9h-.976v3.9H17.074V22.635c0-1.991,2.418-2.428,2.519-2.446a.488.488,0,0,0,.338-.732l-4.39-7.317a.507.507,0,0,0-.836,0l-4.39,7.317a.488.488,0,0,0,.337.732c.1.018,2.521.455,2.521,2.446v2.439H11.22v-3.9h-.976v3.9H9.756V16.293h.488v.976h.976V15.805a.482.482,0,0,0-.04-.192L9.717,12.2a.488.488,0,0,0-.9,0L7.357,15.613a.482.482,0,0,0-.04.192v9.269h-3.9V11.415H27.806V25.074H23.9v-12.2A.488.488,0,0,0,23.416,12.39ZM14.147,23.61v-.488H16.1v.488Zm1.951.976v.488H14.147v-.488Zm-1.987-2.439A3.641,3.641,0,0,0,11.487,19.4l3.148-5.246v4.093h.976V14.152L18.758,19.4a3.635,3.635,0,0,0-2.624,2.749H14.111Zm-5.567-6.83.725-1.691.725,1.691Zm.237.976v8.781H8.293V16.293Zm21.464,8.781H28.782V10.927a.488.488,0,0,0-.488-.488H2.927a.488.488,0,0,0-.488.488V25.074H.976V9.463a.488.488,0,0,1,.488-.488H29.757a.488.488,0,0,1,.488.488Z" transform="translate(829 4386)" fill="#fff"/>
    <path id="Path_1850" data-name="Path 1850" d="M233.463,312a1.463,1.463,0,1,0,1.463,1.463A1.463,1.463,0,0,0,233.463,312Zm0,1.951a.488.488,0,1,1,.488-.488A.488.488,0,0,1,233.463,313.951Z" transform="translate(611.147 4100.537)" fill="#fff"/>
  </g>
</svg>
