<svg xmlns="http://www.w3.org/2000/svg" xmlns:xlink="http://www.w3.org/1999/xlink" width="80" height="80" viewBox="0 0 80 80">
  <defs>
    <linearGradient id="linear-gradient" x1="0.5" x2="0.5" y2="1" gradientUnits="objectBoundingBox">
      <stop offset="0" stop-color="#ffdc09"/>
      <stop offset="1" stop-color="#feb783"/>
    </linearGradient>
  </defs>
  <g id="Icon" transform="translate(-405 -4369)">
    <rect id="Rectangle_16" data-name="Rectangle 16" width="80" height="80" rx="20" transform="translate(405 4369)" fill="#fecb3e" opacity="0.3"/>
    <rect id="Rectangle_21" data-name="Rectangle 21" width="60" height="60" rx="15" transform="translate(415 4379)" fill="url(#linear-gradient)"/>
    <path id="Path_1851" data-name="Path 1851" d="M31.962,2.389A2.487,2.487,0,0,0,29.611.038,24.7,24.7,0,0,0,17.228,2.516a24.311,24.311,0,0,0-7.1,5.887l-.075.092-4.686.362A2.474,2.474,0,0,0,3.482,9.966L.285,14.8A1.714,1.714,0,0,0,1.452,17.44l3.948.611c-.014.077-.028.153-.041.23a2.486,2.486,0,0,0,.7,2.162l5.5,5.5a2.492,2.492,0,0,0,1.759.73,2.451,2.451,0,0,0,.4-.033l.23-.041.612,3.948A1.712,1.712,0,0,0,17.2,31.715l4.836-3.2a2.473,2.473,0,0,0,1.109-1.885l.362-4.686.092-.075a24.308,24.308,0,0,0,5.887-7.1A24.7,24.7,0,0,0,31.962,2.389ZM21,26.954l-4.626,3.058-.6-3.848a21,21,0,0,0,5.731-2.729l-.236,3.053a.611.611,0,0,1-.274.465Zm-8.118-2.336-5.5-5.5a.608.608,0,0,1-.173-.528,16.128,16.128,0,0,1,.732-2.785l8.252,8.252a16.2,16.2,0,0,1-2.783.734.608.608,0,0,1-.528-.173ZM5.511,10.726l3.053-.236a21,21,0,0,0-2.729,5.731l-3.848-.6L5.046,11A.611.611,0,0,1,5.511,10.726ZM22.4,20.431a21.5,21.5,0,0,1-4.34,2.838L8.73,13.943A21.867,21.867,0,0,1,11.569,9.6a22.374,22.374,0,0,1,6.521-5.422A22.8,22.8,0,0,1,29.509,1.91a.615.615,0,0,1,.581.581,22.8,22.8,0,0,1-2.272,11.42A22.374,22.374,0,0,1,22.4,20.431Z" transform="translate(429 4393)" fill="#fff"/>
    <path id="Path_1852" data-name="Path 1852" d="M279.986,94.841a4.26,4.26,0,1,0-3.014-1.247A4.251,4.251,0,0,0,279.986,94.841Zm-1.809-6.07a2.558,2.558,0,1,1-.749,1.809A2.55,2.55,0,0,1,278.177,88.771Z" transform="translate(171.156 4312.279)" fill="#fff"/>
    <path id="Path_1853" data-name="Path 1853" d="M1.154,347.454a.85.85,0,0,0,.6-.25l2.784-2.784a.853.853,0,1,0-1.206-1.206L.551,346a.853.853,0,0,0,.6,1.456Z" transform="translate(428.716 4071.825)" fill="#fff"/>
    <path id="Path_1854" data-name="Path 1854" d="M6.808,388.1a.853.853,0,0,0-1.206,0L.25,393.447a.853.853,0,1,0,1.206,1.206L6.808,389.3A.853.853,0,0,0,6.808,388.1Z" transform="translate(428.999 4030.097)" fill="#fff"/>
    <path id="Path_1855" data-name="Path 1855" d="M93.1,432.976l-2.784,2.784a.853.853,0,1,0,1.206,1.206l2.784-2.784a.853.853,0,1,0-1.206-1.206Z" transform="translate(344.659 3987.768)" fill="#fff"/>
  </g>
</svg>
